{
  "accessors": [
    {
      "bufferView": 1,
      "componentType": 5126,
      "count": 2738,
      "max": [
        11.999199867248535,
        11.996700286865234,
        41.43560028076172
      ],
      "min": [
        -11.999199867248535,
        -12.0,
        -0.0
      ],
      "type": "VEC3"
    },
    {
      "bufferView": 1,
      "byteOffset": 32856,
      "componentType": 5126,
      "count": 2738,
      "max": [
        1.0,
        1.0,
        1.0
      ],
      "min": [
        -1.0,
        -1.0,
        -1.0
      ],
      "type": "VEC3"
    },
    {
      "bufferView": 0,
      "componentType": 5125,
      "count": 14715,
      "type": "SCALAR"
    },
    {
      "bufferView": 1,
      "byteOffset": 65712,
      "componentType": 5126,
      "count": 14265,
      "max": [
        13.322500228881836,
        11.996700286865234,
        44.43560028076172
      ],
      "min": [
        -13.322500228881836,
        -12.0,
        -0.0
      ],
      "type": "VEC3"
    },
    {
      "bufferView": 1,
      "byteOffset": 236892,
      "componentType": 5126,
      "count": 14265,
      "max": [
        1.0,
        1.0,
        1.0
      ],
      "min": [
        -1.0,
        -1.0,
        -1.0
      ],
      "type": "VEC3"
    },
    {
      "bufferView": 0,
      "byteOffset": 58860,
      "componentType": 5125,
      "count": 83181,
      "type": "SCALAR"
    },
    {
      "bufferView": 1,
      "byteOffset": 408072,
      "componentType": 5126,
      "count": 145,
      "max": [
        11.721599578857422,
        8.350000381469727,
        39.43560028076172
      ],
      "min": [
        -11.721599578857422,
        -8.350000381469727,
        -0.0
      ],
      "type": "VEC3"
    },
    {
      "bufferView": 1,
      "byteOffset": 409812,
      "componentType": 5126,
      "count": 145,
      "max": [
        0.49168646335601807,
        0.46557992696762085,
        0.9999916553497314
      ],
      "min": [
        -0.49168646335601807,
        -1.0,
        -1.0
      ],
      "type": "VEC3"
    },
    {
      "bufferView": 0,
      "byteOffset": 391584,
      "componentType": 5125,
      "count": 267,
      "type": "SCALAR"
    },
    {
      "bufferView": 1,
      "byteOffset": 411552,
      "componentType": 5126,
      "count": 39208,
      "max": [
        22.196300506591797,
        12.5,
        44.43560028076172
      ],
      "min": [
        -22.196300506591797,
        -12.5,
        0.0
      ],
      "type": "VEC3"
    },
    {
      "bufferView": 1,
      "byteOffset": 882048,
      "componentType": 5126,
      "count": 39208,
      "max": [
        1.0,
        0.9999997615814209,
        0.9999481439590454
      ],
      "min": [
        -1.0,
        -0.9999997615814209,
        -1.0
      ],
      "type": "VEC3"
    },
    {
      "bufferView": 0,
      "byteOffset": 392652,
      "componentType": 5125,
      "count": 233619,
      "type": "SCALAR"
    }
  ],
  "asset": {
    "extras": {
      "author": "guss67 (https://sketchfab.com/guss67)",
      "license": "CC-BY-4.0 (http://creativecommons.org/licenses/by/4.0/)",
      "source": "https://sketchfab.com/3d-models/clash-royale-trophy-high-quality-7e58a1f39e444a3c9263ac6f2f47991c",
      "title": "Clash Royale | Trophy (High Quality)"
    },
    "generator": "Sketchfab-12.68.0",
    "version": "2.0"
  },
  "bufferViews": [
    {
      "buffer": 0,
      "byteLength": 1327128,
      "name": "floatBufferViews",
      "target": 34963
    },
    {
      "buffer": 0,
      "byteLength": 1352544,
      "byteOffset": 1327128,
      "byteStride": 12,
      "name": "floatBufferViews",
      "target": 34962
    }
  ],
  "buffers": [
    {
      "byteLength": 2679672,
      "uri": "scene.bin"
    }
  ],
  "materials": [
    {
      "doubleSided": true,
      "name": "gold_trophie_01default",
      "pbrMetallicRoughness": {
        "metallicFactor": 0.0,
        "roughnessFactor": 0.6
      }
    }
  ],
  "meshes": [
    {
      "name": "Object_0",
      "primitives": [
        {
          "attributes": {
            "NORMAL": 1,
            "POSITION": 0
          },
          "indices": 2,
          "material": 0,
          "mode": 4
        }
      ]
    },
    {
      "name": "Object_1",
      "primitives": [
        {
          "attributes": {
            "NORMAL": 4,
            "POSITION": 3
          },
          "indices": 5,
          "material": 0,
          "mode": 4
        }
      ]
    },
    {
      "name": "Object_2",
      "primitives": [
        {
          "attributes": {
            "NORMAL": 7,
            "POSITION": 6
          },
          "indices": 8,
          "material": 0,
          "mode": 4
        }
      ]
    },
    {
      "name": "Object_3",
      "primitives": [
        {
          "attributes": {
            "NORMAL": 10,
            "POSITION": 9
          },
          "indices": 11,
          "material": 0,
          "mode": 4
        }
      ]
    }
  ],
  "nodes": [
    {
      "children": [
        1
      ],
      "matrix": [
        0.011111111380159855,
        0.0,
        0.0,
        0.0,
        0.0,
        2.4671623366856143e-18,
        -0.011111111380159855,
        0.0,
        0.0,
        0.011111111380159855,
        2.4671623366856143e-18,
        0.0,
        0.0,
        0.0,
        0.0,
        1.0
      ],
      "name": "Sketchfab_model"
    },
    {
      "children": [
        2,
        3,
        4,
        5
      ],
      "name": "gold_trophie_01.2.1.obj.cleaner.materialmerger.gles"
    },
    {
      "mesh": 0,
      "name": "Object_2"
    },
    {
      "mesh": 1,
      "name": "Object_3"
    },
    {
      "mesh": 2,
      "name": "Object_4"
    },
    {
      "mesh": 3,
      "name": "Object_5"
    }
  ],
  "scene": 0,
  "scenes": [
    {
      "name": "Sketchfab_Scene",
      "nodes": [
        0
      ]
    }
  ]
}
